<svg xmlns="http://www.w3.org/2000/svg" width="36" height="36" viewBox="0 0 36 36" fill="none">
  <path d="M17.9999 15.1875L17.9999 30.375" stroke="black" stroke-width="1.5" stroke-linecap="round" stroke-linejoin="round"/>
  <path d="M17.9999 5.625L17.9999 9.5625" stroke="black" stroke-width="1.5" stroke-linecap="round" stroke-linejoin="round"/>
  <path d="M17.9999 15.1875C19.5532 15.1875 20.8124 13.9283 20.8124 12.375C20.8124 10.8217 19.5532 9.5625 17.9999 9.5625C16.4466 9.5625 15.1874 10.8217 15.1874 12.375C15.1874 13.9283 16.4466 15.1875 17.9999 15.1875Z" stroke="black" stroke-width="1.5" stroke-linecap="round" stroke-linejoin="round"/>
  <path d="M28.1249 26.4375L28.125 30.375" stroke="black" stroke-width="1.5" stroke-linecap="round" stroke-linejoin="round"/>
  <path d="M28.125 5.625L28.1249 20.8125" stroke="black" stroke-width="1.5" stroke-linecap="round" stroke-linejoin="round"/>
  <path d="M28.1249 26.4375C29.6782 26.4375 30.9374 25.1783 30.9374 23.625C30.9374 22.0717 29.6782 20.8125 28.1249 20.8125C26.5716 20.8125 25.3124 22.0717 25.3124 23.625C25.3124 25.1783 26.5716 26.4375 28.1249 26.4375Z" stroke="black" stroke-width="1.5" stroke-linecap="round" stroke-linejoin="round"/>
  <path d="M7.87483 21.9375L7.87476 30.375" stroke="black" stroke-width="1.5" stroke-linecap="round" stroke-linejoin="round"/>
  <path d="M7.87476 5.625L7.87483 16.3125" stroke="black" stroke-width="1.5" stroke-linecap="round" stroke-linejoin="round"/>
  <path d="M7.87488 21.9375C9.42818 21.9375 10.6874 20.6783 10.6874 19.125C10.6874 17.5717 9.42818 16.3125 7.87488 16.3125C6.32158 16.3125 5.06238 17.5717 5.06238 19.125C5.06238 20.6783 6.32158 21.9375 7.87488 21.9375Z" stroke="black" stroke-width="1.5" stroke-linecap="round" stroke-linejoin="round"/>
</svg>